<svg xmlns="http://www.w3.org/2000/svg" viewBox="0 0 20 20">
  <path fill="#ff3b3b" d="M3.46 13.5a7 7 0 0 1-.46-2.5c0-.5.05-1 .15-1.48l1.46.42A5.5 5.5 0 0 0 4.5 11c0 .62.1 1.22.27 1.78z"/>
  <path fill="#ffd600" d="M3.76 8.3A7 7 0 0 1 10 4a7 7 0 0 1 6.24 4.3l-1.38.58A5.5 5.5 0 0 0 10 5.5a5.5 5.5 0 0 0-4.86 2.88z"/>
  <path fill="#00c853" d="M16.54 9.52c.1.48.15.98.15 1.48 0 .87-.16 1.7-.46 2.5l-1.31-.72c.17-.56.27-1.16.27-1.78 0-.37-.04-.74-.1-1.1z"/>
  <path fill="#08060d" fill-rule="evenodd" d="M10 12.25a1.25 1.25 0 1 0 0-2.5 1.25 1.25 0 0 0 0 2.5" clip-rule="evenodd"/>
  <path fill="#08060d" d="M10.47 11.27 13.9 6.4a.5.5 0 0 0-.82-.57L9.64 10.7a1.26 1.26 0 0 1 .83.57"/>
  <path fill="#08060d" fill-rule="evenodd" d="M10 2a9 9 0 1 0 0 18A9 9 0 0 0 10 2M2.5 11a7.5 7.5 0 1 1 15 0 7.5 7.5 0 0 1-15 0" clip-rule="evenodd"/>
</svg>
